<?xml version="1.0" standalone="no"?>
<!DOCTYPE svg PUBLIC "-//W3C//DTD SVG 1.1//EN" "http://www.w3.org/Graphics/SVG/1.1/DTD/svg11.dtd" >
<svg xmlns="http://www.w3.org/2000/svg">
<metadata>
<json>
<![CDATA[
{
	"fontFamily": "icomoon",
	"majorVersion": 1,
	"minorVersion": 0,
	"version": "Version 1.0",
	"fontId": "icomoon",
	"psName": "icomoon",
	"subFamily": "Regular",
	"fullName": "icomoon",
	"description": "Font generated by IcoMoon."
}
]]>
</json>
</metadata>
<defs>
<font id="icomoon" horiz-adv-x="1024">
<font-face units-per-em="1024" ascent="960" descent="-64" />
<missing-glyph horiz-adv-x="1024" />
<glyph unicode="&#x20;" horiz-adv-x="512" d="" />
<glyph unicode="&#xe900;" glyph-name="arrow-down" data-tags="arrow-down" d="M563.701 176.87c-13.716-13.713-32.317-21.415-51.712-21.415s-37.996 7.703-51.712 21.415l-413.769 413.769c-6.986 6.747-12.558 14.818-16.391 23.741s-5.851 18.521-5.935 28.233c-0.084 9.712 1.766 19.343 5.444 28.333s9.109 17.156 15.976 24.023c6.868 6.868 15.034 12.299 24.023 15.976s18.621 5.528 28.333 5.444c9.712-0.084 19.309-2.102 28.233-5.935s16.995-9.406 23.741-16.391l362.057-362.058 362.061 362.058c13.795 13.324 32.271 20.696 51.449 20.529s37.522-7.859 51.083-21.42c13.561-13.561 21.255-31.907 21.416-51.084 0.168-19.178-7.205-37.654-20.524-51.449l-413.773-413.769z" />
<glyph unicode="&#xe901;" glyph-name="arrow-left" data-tags="arrow-left" d="M34.353 486.79c-21.423-21.423-21.423-56.158 0-77.581l292.571-292.571c21.423-21.42 56.158-21.42 77.581 0 21.42 21.424 21.42 56.159 0 77.583l-198.926 198.923h745.277c30.296 0 54.857 24.561 54.857 54.857 0 30.297-24.561 54.857-54.857 54.857h-745.277l198.926 198.924c21.42 21.423 21.42 56.157 0 77.58-21.424 21.423-56.158 21.423-77.581 0l-292.571-292.571z" />
<glyph unicode="&#xe902;" glyph-name="arrow-right" data-tags="arrow-right" d="M989.648 409.209c21.42 21.424 21.42 56.158 0 77.581l-292.571 292.571c-21.424 21.423-56.159 21.423-77.583 0-21.42-21.423-21.42-56.157 0-77.58l198.927-198.924h-745.278c-30.297 0-54.857-24.56-54.857-54.857s24.56-54.857 54.857-54.857h745.278l-198.927-198.923c-21.42-21.424-21.42-56.159 0-77.583 21.424-21.42 56.159-21.42 77.583 0l292.571 292.571z" />
<glyph unicode="&#xe903;" glyph-name="arrow-up" data-tags="arrow-up" d="M434.335 719.148c13.716 13.712 32.317 21.415 51.712 21.415s37.996-7.703 51.712-21.415l413.771-413.769c6.985-6.747 12.559-14.818 16.391-23.742s5.851-18.521 5.932-28.233c0.088-9.712-1.763-19.343-5.442-28.332s-9.106-17.156-15.974-24.024c-6.868-6.867-15.038-12.298-24.027-15.976s-18.622-5.529-28.328-5.444c-9.713 0.084-19.31 2.102-28.233 5.936s-16.998 9.405-23.742 16.391l-362.059 362.057-362.058-362.057c-13.795-13.324-32.271-20.696-51.448-20.529s-37.523 7.858-51.084 21.42c-13.561 13.561-21.254 31.906-21.42 51.084s7.206 37.654 20.529 51.449l413.77 413.769z" />
<glyph unicode="&#xe904;" d="M768 832h-256c-94.259 0-170.669-76.41-170.669-170.667v-426.668c0-94.256 76.41-170.666 170.669-170.666h256c94.256 0 170.666 76.41 170.666 170.666v426.668c0 94.257-76.41 170.667-170.666 170.667z" />
<glyph unicode="&#xe905;" d="M85.332 768c0 35.346 28.654 64 64 64s64-28.654 64-64v-576c0-27.696-8.983-54.643-25.6-76.8l-38.4-51.2-38.4 51.2c-16.617 22.157-25.6 49.104-25.6 76.8v576z" />
<glyph unicode="&#xe906;" d="M213.332 661.333h-128v106.667c0 35.346 28.654 64 64 64s64-28.654 64-64v-106.667z" />
<glyph unicode="&#xe907;" d="M480 661.334c0 17.673 14.326 32 32 32h256c17.674 0 32-14.327 32-32s-14.326-32-32-32h-256c-17.674 0-32 14.326-32 32z" />
<glyph unicode="&#xe908;" d="M480 490.666c0 17.674 14.326 32 32 32h256c17.674 0 32-14.326 32-32s-14.326-32-32-32h-256c-17.674 0-32 14.326-32 32z" />
<glyph unicode="&#xe909;" d="M480 320c0 17.674 14.326 32 32 32h128c17.674 0 32-14.326 32-32s-14.326-32-32-32h-128c-17.674 0-32 14.326-32 32z" />
<glyph unicode="&#xe90a;" d="M959.741 258.749c13.302-11.638 14.65-31.856 3.011-45.155l-122.451-139.942c-26.31-30.070-71.632-34.099-102.835-9.136l-74.787 59.83c-13.798 11.040-16.038 31.178-4.998 44.976 11.043 13.802 31.178 16.038 44.979 4.998l74.787-59.83c4.458-3.565 10.931-2.989 14.691 1.306l122.448 139.942c11.638 13.299 31.856 14.65 45.155 3.011z" />
<glyph unicode="&#xe90b;" d="M482.849 728.557c-90.613 63.493-217.776 92.267-312.427 102.962-46.844 5.293-85.091-33.824-85.091-82.087v-480.629c0-48.263 38.247-87.395 85.091-92.69 94.651-10.693 221.814-39.468 312.427-102.96 8.708-6.104 18.926-9.154 29.147-9.154v655.405c-10.222 0-20.44 3.051-29.147 9.152zM181.712 612.695c2.705 17.465 19.056 29.43 36.521 26.726 55.585-8.609 118.183-22.997 177.31-45.863 16.486-6.374 24.678-24.901 18.304-41.388-6.371-16.483-24.901-24.678-41.384-18.304-53.704 20.769-111.596 34.191-164.024 42.309-17.465 2.703-29.43 19.054-26.726 36.519zM218.232 468.754c-17.465 2.703-33.816-9.26-36.521-26.726-2.704-17.463 9.261-33.814 26.726-36.52 26.421-4.092 54.311-9.541 82.403-16.629 17.136-4.323 34.533 6.064 38.856 23.197 4.323 17.137-6.063 34.534-23.199 38.857-30.251 7.632-60.115 13.462-88.264 17.821z" />
<glyph unicode="&#xe90c;" d="M541.147 728.557c90.613 63.493 217.776 92.267 312.426 102.962 46.844 5.293 85.094-33.824 85.094-82.087v-480.629c0-48.263-38.25-87.395-85.094-92.69-94.651-10.693-221.813-39.468-312.426-102.96-8.708-6.104-18.926-9.154-29.147-9.154v655.405c10.222 0 20.44 3.051 29.147 9.152z" />
<glyph unicode="&#xe90d;" d="M725.336 874.661h-426.666c-70.693 0-128-57.307-128-128v-597.332h682.666v597.332c0 70.693-57.307 128-128 128z" />
<glyph unicode="&#xe90e;" d="M853.336 277.339h-554.666c-70.693 0-128-57.307-128-128s57.307-128 128-128h426.666c70.693 0 128 57.307 128 128v128z" />
<glyph unicode="&#xe90f;" d="M661.072 685.421c13.301-11.638 14.651-31.854 3.010-45.155l-122.448-139.94c-26.313-30.073-71.636-34.099-102.835-9.139l-74.788 59.831c-13.8 11.041-16.038 31.177-4.997 44.978s31.178 16.038 44.977 4.997l74.789-59.831c4.458-3.566 10.931-2.988 14.691 1.306l122.448 139.943c11.637 13.3 31.854 14.648 45.155 3.010z" />
<glyph unicode="&#xe910;" d="M85.333 704c0 94.257 76.41 170.667 170.667 170.667h512c94.255 0 170.667-76.41 170.667-170.667v-512c0-94.255-76.412-170.667-170.667-170.667h-512c-94.257 0-170.667 76.412-170.667 170.667v512z" />
<glyph unicode="&#xe911;" d="M256 421.632c0 31.718 33.379 52.348 61.748 38.161l117.926-58.961c31.45-15.727 31.45-60.604 0-76.326l-117.926-58.961c-28.369-14.187-61.748 6.443-61.748 38.161v117.926z" />
<glyph unicode="&#xe912;" d="M938.667 661.333h-853.333v42.667c0 94.257 76.41 170.667 170.667 170.667h512c94.255 0 170.667-76.41 170.667-170.667v-42.667z" />
<glyph unicode="&#xe913;" d="M565.333 448c0 17.673 14.327 32 32 32h170.667c17.673 0 32-14.327 32-32s-14.327-32-32-32h-170.667c-17.673 0-32 14.327-32 32z" />
<glyph unicode="&#xe914;" d="M565.333 277.333c0 17.673 14.327 32 32 32h170.667c17.673 0 32-14.327 32-32s-14.327-32-32-32h-170.667c-17.673 0-32 14.327-32 32z" />
<glyph unicode="&#xe915;" d="M85.333 704c0 94.257 76.41 170.667 170.667 170.667h512c94.255 0 170.667-76.41 170.667-170.667v-512c0-94.255-76.412-170.667-170.667-170.667h-512c-94.257 0-170.667 76.412-170.667 170.667v512z" />
<glyph unicode="&#xe916;" d="M256 421.632c0 31.718 33.379 52.348 61.748 38.161l117.926-58.961c31.45-15.727 31.45-60.604 0-76.326l-117.926-58.961c-28.369-14.187-61.748 6.443-61.748 38.161v117.926z" />
<glyph unicode="&#xe917;" d="M938.667 661.333h-853.333v42.667c0 94.257 76.41 170.667 170.667 170.667h512c94.255 0 170.667-76.41 170.667-170.667v-42.667z" />
<glyph unicode="&#xe918;" d="M565.333 448c0 17.673 14.327 32 32 32h170.667c17.673 0 32-14.327 32-32s-14.327-32-32-32h-170.667c-17.673 0-32 14.327-32 32z" />
<glyph unicode="&#xe919;" d="M565.333 277.333c0 17.673 14.327 32 32 32h170.667c17.673 0 32-14.327 32-32s-14.327-32-32-32h-170.667c-17.673 0-32 14.327-32 32z" />
<glyph unicode="&#xe91a;" d="M85.333 704c0 94.257 76.41 170.667 170.667 170.667h256v-426.667h-426.667v256z" />
<glyph unicode="&#xe91b;" d="M85.333 192c0-94.255 76.41-170.667 170.667-170.667h256v426.667h-426.667v-256z" />
<glyph unicode="&#xe91c;" d="M938.667 704c0 94.257-76.412 170.667-170.667 170.667h-256v-426.667h426.667v256z" />
<glyph unicode="&#xe91d;" d="M938.667 192v256h-426.667v-426.667h256c94.255 0 170.667 76.412 170.667 170.667zM842.667 298.667c0-17.673-14.327-32-32-32h-170.667c-17.673 0-32 14.327-32 32s14.327 32 32 32h170.667c17.673 0 32-14.327 32-32zM810.667 138.667h-170.667c-17.673 0-32 14.327-32 32s14.327 32 32 32h170.667c17.673 0 32-14.327 32-32s-14.327-32-32-32z" />
<glyph unicode="&#xe91f;" glyph-name="camera" data-tags="camera" d="M358.659 794.001l-60.001-90.001h-42.666c-94.257 0-170.667-76.41-170.667-170.666v-298.669c0-94.254 76.41-170.665 170.667-170.665h511.998c94.259 0 170.67 76.411 170.67 170.665v298.669c0 94.257-76.411 170.666-170.67 170.666h-42.665l-60.001 90.001c-15.826 23.74-42.47 37.999-70.999 37.999h-164.664c-28.531 0-55.175-14.259-71.002-37.999zM639.99 384c0-70.692-57.308-128-127.998-128-70.692 0-128 57.308-128 128s57.308 128 128 128c70.69 0 127.998-57.308 127.998-128zM511.992 661.334c23.565 0 42.668 19.102 42.668 42.666s-19.103 42.666-42.668 42.666c-23.564 0-42.667-19.102-42.667-42.666s19.103-42.666 42.667-42.666z" />
<glyph unicode="&#xe920;" d="M60.964 953.911c-20.198 0-36.571-16.374-36.571-36.571s16.374-36.571 36.571-36.571h97.524c33.663 0 60.953-27.29 60.953-60.953h73.143c0 74.059-60.037 134.095-134.095 134.095h-97.524z" />
<glyph unicode="&#xe921;" d="M219.429 819.821h585.143c107.721 0 195.046-87.326 195.046-195.047v-243.809c0-107.721-87.325-195.046-195.046-195.046h-390.096c-107.721 0-195.046 87.325-195.046 195.046v438.857z" />
<glyph unicode="&#xe922;" d="M463.25 15.25c0-40.396-32.747-73.143-73.143-73.143s-73.143 32.747-73.143 73.143c0 40.396 32.747 73.143 73.143 73.143s73.143-32.747 73.143-73.143z" />
<glyph unicode="&#xe923;" d="M902.107 15.25c0-40.396-32.747-73.143-73.143-73.143s-73.143 32.747-73.143 73.143c0 40.396 32.747 73.143 73.143 73.143s73.143-32.747 73.143-73.143z" />
<glyph unicode="&#xe924;" d="M787.686 447.667c9.918-17.591 3.697-39.896-13.897-49.818-59.253-33.404-110.292-53.372-164.107-53.475-53.884-0.102-105.022 19.705-164.509 53.544-17.554 9.988-23.691 32.315-13.703 49.872 9.988 17.554 32.315 23.691 49.869 13.703 55.406-31.517 93.199-44.043 128.201-43.977 35.068 0.066 72.872 12.782 128.325 44.047 17.595 9.922 39.899 3.697 49.821-13.897z" />
<glyph unicode="&#xe925;" d="M117.325 906.675c-17.673 0-32-14.327-32-32s14.327-32 32-32h85.334c29.455 0 53.334-23.878 53.334-53.334h64c0 64.801-52.532 117.334-117.334 117.334h-85.334z" />
<glyph unicode="&#xe926;" d="M256 789.35h512c94.259 0 170.665-76.41 170.665-170.666v-213.333c0-94.259-76.406-170.665-170.665-170.665h-341.334c-94.257 0-170.666 76.406-170.666 170.665v383.999z" />
<glyph unicode="&#xe927;" d="M469.325 85.35c0-35.346-28.654-64-64-64s-64 28.654-64 64c0 35.346 28.654 64 64 64s64-28.654 64-64z" />
<glyph unicode="&#xe928;" d="M853.325 85.35c0-35.346-28.654-64-64-64s-64 28.654-64 64c0 35.346 28.654 64 64 64s64-28.654 64-64z" />
<glyph unicode="&#xe929;" d="M753.203 463.71c8.684-15.395 3.236-34.91-12.155-43.589-51.85-29.235-96.507-46.705-143.596-46.792-47.15-0.092-91.894 17.239-143.945 46.848-15.362 8.74-20.73 28.278-11.992 43.639s28.276 20.73 43.637 11.992c48.479-27.578 81.549-38.54 112.177-38.479 30.684 0.056 63.759 11.182 112.287 38.539 15.391 8.68 34.908 3.236 43.587-12.159z" />
<glyph unicode="&#xe92a;" d="M938.667 448c0-235.639-191.027-426.667-426.667-426.667-235.642 0-426.667 191.027-426.667 426.667 0 235.642 191.025 426.667 426.667 426.667 235.639 0 426.667-191.025 426.667-426.667z" />
<glyph unicode="&#xe92b;" d="M702.315 601.258c13.948-10.85 16.461-30.955 5.611-44.905l-170.965-219.811c-26.611-34.219-76.668-38.656-108.885-9.66l-108.148 97.331c-13.136 11.823-14.201 32.055-2.378 45.193s32.056 14.199 45.192 2.377l108.146-97.331c4.604-4.143 11.755-3.507 15.556 1.382l170.965 219.811c10.85 13.95 30.955 16.463 44.907 5.613z" />
<glyph unicode="&#xe92c;" glyph-name="chevron-left" data-tags="chevron-left" d="M240.844 396.299c-13.712 13.716-21.415 32.317-21.415 51.712s7.703 37.996 21.415 51.712l413.769 413.769c6.747 6.986 14.818 12.558 23.741 16.391s18.522 5.851 28.234 5.935c9.711 0.084 19.343-1.766 28.332-5.444s17.156-9.109 24.023-15.976c6.867-6.868 12.299-15.034 15.977-24.023s5.528-18.621 5.444-28.333c-0.085-9.712-2.102-19.309-5.936-28.233s-9.405-16.995-16.391-23.741l-362.057-362.057 362.057-362.061c13.323-13.795 20.696-32.271 20.529-51.449s-7.859-37.522-21.42-51.083c-13.561-13.561-31.907-21.255-51.084-21.416-19.178-0.168-37.654 7.205-51.449 20.524l-413.769 413.773z" />
<glyph unicode="&#xe92d;" glyph-name="chevron-right" data-tags="chevron-right" d="M783.156 499.701c13.713-13.716 21.415-32.317 21.415-51.712s-7.703-37.996-21.415-51.712l-413.769-413.765c-6.747-6.992-14.818-12.559-23.741-16.391-8.924-3.84-18.522-5.851-28.234-5.939-9.711-0.080-19.343 1.77-28.332 5.442-8.989 3.679-17.156 9.114-24.023 15.982s-12.299 15.031-15.976 24.020c-3.678 8.989-5.528 18.622-5.444 28.336 0.084 9.706 2.102 19.31 5.935 28.233s9.406 16.991 16.391 23.742l362.057 362.053-362.057 362.058c-13.324 13.795-20.696 32.271-20.529 51.449s7.859 37.523 21.42 51.084c13.561 13.561 31.907 21.254 51.084 21.42s37.654-7.206 51.449-20.529l413.769-413.77z" />
<glyph unicode="&#xe92e;" glyph-name="close" data-tags="close" d="M115.136 870.379c14.003 14.003 32.995 21.869 52.797 21.869s38.794-7.867 52.797-21.869l316.784-316.784 316.784 316.784c14.002 14.003 32.994 21.869 52.795 21.869 19.806 0 38.801-7.867 52.796-21.869 14.003-14.002 21.871-32.994 21.871-52.797s-7.868-38.794-21.871-52.797l-316.78-316.784 316.78-316.784c14.003-14.002 21.871-32.998 21.871-52.795 0-19.806-7.868-38.801-21.871-52.796-13.995-14.003-32.99-21.871-52.796-21.871-19.8 0-38.792 7.868-52.795 21.871l-316.784 316.78-316.784-316.78c-14.002-14.003-32.994-21.871-52.797-21.871s-38.794 7.868-52.797 21.871c-14.003 13.995-21.869 32.99-21.869 52.796 0 19.797 7.867 38.793 21.869 52.795l316.783 316.784-316.784 316.784c-14.003 14.003-21.869 32.995-21.869 52.797s7.867 38.794 21.869 52.797z" />
<glyph unicode="&#xe92f;" d="M128 746.667c0 70.692 57.308 128 128 128h512c70.694 0 128-57.308 128-128v-597.333c0-70.694-57.306-128-128-128h-512c-70.692 0-128 57.306-128 128v597.333z" />
<glyph unicode="&#xe930;" d="M266.667 576c0 64.801 52.532 117.333 117.333 117.333s117.333-52.532 117.333-117.333v-128c0-17.673-14.327-32-32-32s-32 14.327-32 32v128c0 29.455-23.878 53.333-53.333 53.333s-53.333-23.878-53.333-53.333v-128c0-17.673-14.327-32-32-32s-32 14.327-32 32v128z" />
<glyph unicode="&#xe931;" d="M266.667 533.333c0 17.673 14.327 32 32 32h170.667c17.673 0 32-14.327 32-32s-14.327-32-32-32h-170.667c-17.673 0-32 14.327-32 32z" />
<glyph unicode="&#xe932;" d="M266.667 320c0 17.673 14.327 32 32 32h426.667c17.673 0 32-14.327 32-32s-14.327-32-32-32h-426.667c-17.673 0-32 14.327-32 32z" />
<glyph unicode="&#xe933;" d="M266.667 192c0 17.673 14.327 32 32 32h213.333c17.673 0 32-14.327 32-32s-14.327-32-32-32h-213.333c-17.673 0-32 14.327-32 32z" />
<glyph unicode="&#xe934;" d="M565.333 640c0 17.673 14.327 32 32 32h128c17.673 0 32-14.327 32-32s-14.327-32-32-32h-128c-17.673 0-32 14.327-32 32z" />
<glyph unicode="&#xe935;" d="M661.333 736c17.673 0 32-14.327 32-32v-128c0-17.673-14.327-32-32-32s-32 14.327-32 32v128c0 17.673 14.327 32 32 32z" />
<glyph unicode="&#xe936;" glyph-name="facebook" data-tags="facebook" d="M725.333 810.665c0 5.658-2.249 11.084-6.246 15.085-4.002 4.001-9.429 6.249-15.087 6.249h-106.667c-53.713 2.676-106.3-16.017-146.274-51.993-39.972-35.976-64.082-86.311-67.059-140.007v-115.202h-106.667c-5.658 0-11.084-2.244-15.085-6.246s-6.249-9.425-6.249-15.087v-110.933c0-5.658 2.248-11.081 6.249-15.083s9.427-6.251 15.085-6.251h106.667v-285.867c0-5.658 2.248-11.081 6.249-15.083s9.427-6.251 15.085-6.251h128c5.658 0 11.085 2.249 15.087 6.251 3.998 4.002 6.246 9.425 6.246 15.083v285.867h111.787c4.745-0.068 9.374 1.451 13.163 4.309 3.785 2.859 6.511 6.899 7.744 11.477l30.72 110.933c0.849 3.153 0.964 6.46 0.333 9.664-0.627 3.2-1.984 6.217-3.964 8.815-1.98 2.594-4.527 4.702-7.445 6.161-2.923 1.455-6.14 2.223-9.404 2.24h-142.933v115.202c1.062 10.561 6.020 20.347 13.909 27.447s18.142 11.005 28.757 10.953h106.667c5.658 0 11.085 2.248 15.087 6.248 3.998 4.001 6.246 9.427 6.246 15.085v110.933z" />
<glyph unicode="&#xe937;" glyph-name="heart" data-tags="heart" d="M544.64 759.369l-32.64-35.069-32.64 35.069c-90.141 96.841-236.284 96.841-326.423 0s-90.139-253.85 0-350.695l293.778-315.622c36.053-38.737 94.511-38.737 130.569 0l293.777 315.622c90.142 96.845 90.142 253.854 0 350.695-90.138 96.841-236.279 96.841-326.421 0z" />
<glyph unicode="&#xe939;" glyph-name="home" data-tags="home" d="M128 539.864c0 36.561 15.635 71.378 42.961 95.668l227.654 202.359c64.663 57.479 162.106 57.478 226.771 0l227.652-202.359c27.328-24.291 42.961-59.107 42.961-95.668v-347.851c0-94.259-76.412-170.667-170.667-170.667h-426.667c-94.257 0-170.667 76.407-170.667 170.667v347.851z" />
<glyph unicode="&#xe93a;" d="M896 193.417v333.504c0 51.666-23.023 100.599-62.716 133.281l-213.333 175.666c-62.822 51.732-153.079 51.732-215.904 0l-213.333-175.666c-39.689-32.682-62.714-81.615-62.714-133.281v-333.504c0-95.040 76.41-172.083 170.667-172.083h426.667c94.255 0 170.667 77.043 170.667 172.083z" />
<glyph unicode="&#xe93b;" d="M448 458.667c-17.673 0-32-14.327-32-32v-42.667c0-53.018-42.981-96-96-96h-21.333c-17.673 0-32 14.327-32 32s14.327 32 32 32h21.333c17.673 0 32 14.327 32 32v42.667c0 53.018 42.981 96 96 96s96-42.982 96-96v-128c0-17.673 14.327-32 32-32s32 14.327 32 32c0 53.018 42.982 96 96 96h21.333c17.673 0 32-14.327 32-32s-14.327-32-32-32h-21.333c-17.673 0-32-14.327-32-32 0-53.018-42.982-96-96-96s-96 42.982-96 96v128c0 17.673-14.327 32-32 32z" />
<glyph unicode="&#xe93c;" d="M238.933 669.867c-63.287 84.382-3.078 204.8 102.4 204.8h341.333c105.476 0 165.687-120.418 102.4-204.8l-108.8-145.067c-34.133-45.513-34.133-108.087 0-153.6l108.8-145.067c63.287-84.382 3.076-204.8-102.4-204.8h-341.333c-105.478 0-165.687 120.418-102.4 204.8l108.8 145.067c34.133 45.513 34.133 108.087 0 153.6l-108.8 145.067z" />
<glyph unicode="&#xe93d;" d="M478.699 321.028c17.079 21.35 49.553 21.35 66.633 0l81.894-102.366c22.349-27.938 2.458-69.321-33.318-69.321h-163.785c-35.777 0-55.667 41.382-33.318 69.321l81.894 102.366z" />
<glyph unicode="&#xe93e;" d="M238.933 669.867c-63.287 84.382-3.078 204.8 102.4 204.8h341.333c105.476 0 165.687-120.418 102.4-204.8l-108.8-145.067c-34.133-45.513-34.133-108.087 0-153.6l108.8-145.067c63.287-84.382 3.076-204.8-102.4-204.8h-341.333c-105.478 0-165.687 120.418-102.4 204.8l108.8 145.067c34.133 45.513 34.133 108.087 0 153.6l-108.8 145.067z" />
<glyph unicode="&#xe93f;" d="M478.682 321.028c17.079 21.35 49.553 21.35 66.637 0l81.89-102.366c22.349-27.938 2.462-69.321-33.314-69.321h-163.789c-35.776 0-55.666 41.382-33.317 69.321l81.893 102.366z" />
<glyph unicode="&#xe940;" glyph-name="instagram" data-tags="instagram" d="M555.844 874.624c31.134 0.119 62.272-0.193 93.397-0.939l8.277-0.299c9.557-0.341 18.987-0.768 30.379-1.28 45.397-2.133 76.373-9.301 103.552-19.84 28.16-10.837 51.883-25.515 75.605-49.237 21.692-21.316 38.477-47.101 49.195-75.563 10.539-27.179 17.707-58.197 19.84-103.595 0.512-11.349 0.939-20.821 1.28-30.379l0.256-8.277c0.759-31.112 1.084-62.234 0.981-93.355l0.043-31.829v-55.893c0.107-31.134-0.222-62.272-0.981-93.397l-0.256-8.277c-0.341-9.557-0.768-18.987-1.28-30.379-2.133-45.397-9.387-76.373-19.883-103.552-10.684-28.489-27.473-54.298-49.195-75.605-21.333-21.687-47.134-38.473-75.605-49.195-27.179-10.539-58.155-17.707-103.552-19.84-11.392-0.512-20.821-0.939-30.379-1.28l-8.277-0.256c-31.125-0.759-62.263-1.084-93.397-0.981l-87.68-0.043c-31.134-0.107-62.271 0.222-93.397 0.981l-8.277 0.256c-10.129 0.367-20.255 0.794-30.379 1.28-45.397 2.133-76.373 9.387-103.595 19.883-28.472 10.697-54.262 27.486-75.563 49.195-21.715 21.321-38.519 47.125-49.237 75.605-10.539 27.179-17.707 58.155-19.84 103.552-0.475 10.125-0.902 20.25-1.28 30.379l-0.213 8.277c-0.787 31.125-1.142 62.263-1.067 93.397v87.723c-0.119 31.121 0.194 62.243 0.939 93.355l0.299 8.277c0.341 9.557 0.768 19.029 1.28 30.379 2.133 45.44 9.301 76.373 19.84 103.595 10.725 28.475 27.561 54.253 49.323 75.52 21.286 21.728 47.060 38.546 75.52 49.28 27.221 10.539 58.155 17.707 103.595 19.84l30.379 1.28 8.277 0.213c31.112 0.786 62.234 1.142 93.355 1.067l87.723-0.043zM511.983 661.291c-28.267 0.4-56.329-4.822-82.56-15.363s-50.106-26.189-70.236-46.037c-20.131-19.848-36.115-43.498-47.025-69.575-10.911-26.082-16.529-54.067-16.529-82.338 0-28.267 5.618-56.256 16.529-82.334s26.895-49.732 47.025-69.577c20.13-19.849 44.004-35.499 70.236-46.037 26.231-10.543 54.293-15.765 82.56-15.364 56.58 0 110.844 22.477 150.848 62.485 40.009 40.009 62.485 94.268 62.485 150.848s-22.477 110.842-62.485 150.85c-40.004 40.008-94.268 62.441-150.848 62.441zM511.983 575.958c17.003 0.314 33.899-2.764 49.698-9.054s30.187-15.665 42.325-27.577c12.134-11.911 21.777-26.124 28.356-41.804 6.583-15.68 9.975-32.516 9.98-49.523 0-17.007-3.383-33.839-9.963-49.523-6.575-15.684-16.213-29.897-28.343-41.813-12.134-11.917-26.517-21.299-42.317-27.593-15.795-6.293-32.691-9.378-49.694-9.071-33.946 0-66.505 13.487-90.51 37.491s-37.49 56.563-37.49 90.509c0 33.95 13.486 66.505 37.49 90.51s56.564 37.49 90.51 37.49l-0.043-0.043zM735.983 725.291c-13.764-0.551-26.782-6.406-36.326-16.34s-14.874-23.175-14.874-36.951c0-13.775 5.329-27.017 14.874-36.95s22.562-15.789 36.326-16.34c14.144 0 27.712 5.619 37.713 15.621s15.62 23.567 15.62 37.712c0 14.145-5.619 27.711-15.62 37.713s-23.569 15.621-37.713 15.621v-0.085z" />
<glyph unicode="&#xe941;" glyph-name="linkedin" data-tags="linkedin" d="M402.304 577.323h158.464v-78.933c22.827 45.397 81.365 86.187 169.301 86.187 168.576 0 208.597-90.368 208.597-256.171v-307.072h-170.667v269.312c0 94.421-22.827 147.669-80.939 147.669-80.597 0-114.091-57.387-114.091-147.627v-269.355h-170.667v555.989zM109.653 28.587h170.667v555.989h-170.667v-555.989zM304.768 765.867c0.006-14.305-2.831-28.469-8.346-41.668s-13.6-25.17-23.782-35.217c-20.634-20.506-48.563-31.985-77.653-31.915-29.039 0.020-56.904 11.469-77.568 31.872-10.146 10.082-18.202 22.066-23.708 35.267s-8.352 27.358-8.377 41.661c0 28.885 11.52 56.533 32.128 76.928 20.646 20.431 48.522 31.885 77.568 31.872 29.099 0 57.003-11.477 77.611-31.872 20.565-20.395 32.128-48.043 32.128-76.928z" />
<glyph unicode="&#xe942;" glyph-name="lock" data-tags="lock" d="M512 864c-111.93 0-202.667-90.737-202.667-202.667v-2.995c-78.961-14.978-138.667-84.352-138.667-167.671v-256c0-94.255 76.41-170.667 170.667-170.667h341.333c94.255 0 170.667 76.412 170.667 170.667v256c0 83.319-59.708 152.693-138.667 167.671v2.995c0 111.93-90.735 202.667-202.667 202.667zM650.667 661.333c0 76.584-62.084 138.667-138.667 138.667s-138.667-62.083-138.667-138.667h277.333zM597.333 362.667c0-47.13-38.204-85.333-85.333-85.333s-85.333 38.204-85.333 85.333c0 47.13 38.204 85.333 85.333 85.333s85.333-38.204 85.333-85.333z" />
<glyph unicode="&#xe943;" glyph-name="lock-outline" data-tags="lock-outline" d="M744.111 561.917h-46.933v125.013c0 49.111-19.511 96.211-54.238 130.937s-81.826 54.236-130.935 54.236c-49.114 0-96.212-19.509-130.939-54.236s-54.236-81.826-54.236-130.937v-125.013h-46.933c-28.29 0-55.421-11.238-75.425-31.242-20.004-20.002-31.242-47.134-31.242-75.426v-324.693c0.079-28.262 11.342-55.347 31.329-75.337 19.987-19.985 47.072-31.249 75.338-31.33h464.215c28.262 0.081 55.347 11.345 75.337 31.33 19.985 19.989 31.249 47.074 31.33 75.337v324.693c0 28.292-11.238 55.424-31.245 75.426-20.002 20.004-47.134 31.242-75.422 31.242zM369.496 686.931c0 37.795 15.014 74.042 41.739 100.768s62.971 41.739 100.769 41.739c37.794 0 74.039-15.014 100.766-41.739s41.741-62.973 41.741-100.768v-125.013h-285.015v125.013zM808.111 130.556c-0.124-16.934-6.908-33.143-18.884-45.116-11.972-11.977-28.181-18.761-45.116-18.884h-464.215c-16.936 0.124-33.143 6.908-45.119 18.884-11.976 11.972-18.758 28.181-18.881 45.116v324.693c0 16.977 6.743 33.254 18.745 45.257s28.281 18.743 45.255 18.743h464.215c16.973 0 33.25-6.741 45.252-18.743s18.748-28.279 18.748-45.257v-324.693zM554.667 322.125c0.026-7.458-1.937-14.793-5.687-21.239-3.75-6.451-9.152-11.785-15.646-15.454v-64c0-5.658-2.249-11.085-6.246-15.083-4.002-4.002-9.429-6.251-15.087-6.251s-11.085 2.249-15.083 6.251c-4.002 3.998-6.251 9.425-6.251 15.083v64c-6.494 3.669-11.895 9.003-15.646 15.454-3.75 6.447-5.713 13.781-5.687 21.239 0 11.315 4.497 22.17 12.497 30.17s18.854 12.497 30.17 12.497c11.315 0 22.17-4.497 30.17-12.497s12.497-18.854 12.497-30.17z" />
<glyph unicode="&#xe944;" d="M816.913 386.586c-12.493-12.497-12.493-32.759 0-45.257 12.497-12.493 32.759-12.493 45.257 0l55.164 55.164c29.158 29.163 29.158 76.437 0 105.596l-55.164 55.164c-12.497 12.497-32.759 12.497-45.257 0-12.493-12.497-12.493-32.759 0-45.257l30.707-30.703h-260.954c-17.673 0-32-14.327-32-32s14.327-32 32-32h260.954l-30.707-30.707z" />
<glyph unicode="&#xe945;" d="M288 74.667h309.333c111.932 0 202.667 90.735 202.667 202.667 0 17.673-14.327 32-32 32s-32-14.327-32-32c0-76.582-62.084-138.667-138.667-138.667h-161.532c-36.972-39.394-89.513-64-147.802-64zM435.802 757.333h161.532c76.582 0 138.667-62.083 138.667-138.667 0-17.673 14.327-32 32-32s32 14.327 32 32c0 111.93-90.735 202.667-202.667 202.667h-309.333c58.289 0 110.83-24.607 147.802-64z" />
<glyph unicode="&#xe946;" d="M85.333 618.667c0 111.93 90.737 202.667 202.667 202.667s202.667-90.737 202.667-202.667v-341.333c0-111.932-90.737-202.667-202.667-202.667s-202.667 90.735-202.667 202.667v341.333z" />
<glyph unicode="&#xe947;" d="M768 832h-512c-94.257 0-170.667-76.41-170.667-170.667v-426.667c0-94.255 76.41-170.667 170.667-170.667h512c94.255 0 170.667 76.412 170.667 170.667v426.667c0 94.257-76.412 170.667-170.667 170.667z" />
<glyph unicode="&#xe948;" d="M229.378 636.414c9.804 14.705 29.671 18.678 44.376 8.875l161.331-107.554c46.579-31.051 107.26-31.051 153.839 0l161.331 107.554c14.703 9.803 34.573 5.83 44.373-8.875 9.805-14.705 5.833-34.573-8.875-44.376l-161.331-107.553c-68.075-45.385-156.762-45.385-224.838 0l-161.331 107.553c-14.705 9.804-18.678 29.671-8.875 44.376z" />
<glyph unicode="&#xe949;" d="M53.333 320c0 17.673 14.327 32 32 32h256c17.673 0 32-14.327 32-32s-14.327-32-32-32h-256c-17.673 0-32 14.327-32 32z" />
<glyph unicode="&#xe94a;" d="M53.333 192c0 17.673 14.327 32 32 32h256c17.673 0 32-14.327 32-32s-14.327-32-32-32h-256c-17.673 0-32 14.327-32 32z" />
<glyph unicode="&#xe94b;" glyph-name="mail-outline" data-tags="mail-outline" d="M128 746.667v21.333c-5.658 0-11.084-2.248-15.085-6.249s-6.249-9.427-6.249-15.085h21.333zM896 746.667h21.333c0 5.658-2.249 11.084-6.246 15.085-4.002 4.001-9.429 6.249-15.087 6.249v-21.333zM128 725.333h768v42.667h-768v-42.667zM874.667 746.667v-512h42.667v512h-42.667zM810.667 170.667h-597.333v-42.667h597.333v42.667zM149.333 234.667v512h-42.667v-512h42.667zM213.333 170.667c-16.974 0-33.253 6.741-45.255 18.743s-18.745 28.284-18.745 45.257h-42.667c0-28.288 11.238-55.42 31.242-75.426 20.004-20.002 47.135-31.241 75.425-31.241v42.667zM874.667 234.667c0-16.973-6.741-33.254-18.743-45.257s-28.284-18.743-45.257-18.743v-42.667c28.288 0 55.42 11.238 75.426 31.241 20.002 20.006 31.241 47.138 31.241 75.426h-42.667z" />
<glyph unicode="&#xe94c;" d="M250.493 539.279c15.482 136.665 127.9 239.721 261.498 239.721s246.014-103.056 261.495-239.721l14.271-125.961c3.544-31.297 16.229-60.751 36.377-84.464 42.757-50.325 8.055-129.086-56.872-129.086h-510.542c-64.929 0-99.63 78.761-56.874 129.086 20.148 23.713 32.833 53.167 36.379 84.464l14.269 125.961z" />
<glyph unicode="&#xe94d;" d="M512 34.264c57.304 0 106.055 34.537 124.121 82.745 0 11.425-9.263 20.688-20.688 20.688h-206.867c-11.425 0-20.688-9.263-20.688-20.688 18.066-48.209 66.818-82.745 124.121-82.745z" />
<glyph unicode="&#xe94e;" d="M842.969 737.621c0-68.55-55.569-124.121-124.121-124.121-68.549 0-124.121 55.571-124.121 124.121s55.572 124.121 124.121 124.121c68.552 0 124.121-55.571 124.121-124.121z" />
<glyph unicode="&#xe94f;" d="M128 192.006v511.999c0 94.257 76.41 170.667 170.667 170.667h255.999c113.84-113.838 229.043-226.456 341.334-341.827v-340.838c0-94.259-76.41-170.669-170.666-170.669h-426.668c-94.256 0-170.667 76.41-170.667 170.669z" />
<glyph unicode="&#xe950;" d="M554.666 704.005v170.667l341.331-341.334h-170.666c-94.256 0-170.666 76.41-170.666 170.668z" />
<glyph unicode="&#xe951;" d="M274.625 192v183.251h59.375c22.499 0 37.168-0.918 44-2.752 10.499-2.749 19.293-8.749 26.374-18 7.085-9.165 10.627-21.040 10.627-35.626 0-11.248-2.045-20.707-6.128-28.374s-9.29-13.709-15.622-18.125c-6.25-4.333-12.627-7.206-19.126-8.624-8.832-1.75-21.626-2.624-38.374-2.624h-24.125v-69.126h-37zM311.625 344.25v-52h20.25c14.582 0 24.333 0.96 29.251 2.877 4.915 1.917 8.749 4.915 11.498 8.998 2.835 4.083 4.25 8.832 4.25 14.25 0 6.669-1.958 12.166-5.872 16.499-3.917 4.336-8.877 7.043-14.877 8.128-4.416 0.832-13.293 1.248-26.624 1.248h-17.876z" />
<glyph unicode="&#xe952;" d="M445.251 375.251h67.622c15.251 0 26.877-1.168 34.877-3.501 10.749-3.168 19.958-8.794 27.626-16.877s13.498-18 17.498-29.747c4-11.667 6-26.083 6-43.251 0-15.085-1.875-28.083-5.622-39.002-4.586-13.331-11.126-24.125-19.626-32.374-6.416-6.25-15.085-11.123-26-14.624-8.166-2.582-19.085-3.875-32.752-3.875h-69.622v183.251zM482.25 344.25v-121.376h27.626c10.333 0 17.792 0.586 22.374 1.75 6 1.501 10.96 4.042 14.877 7.626 4 3.584 7.248 9.459 9.747 17.626 2.502 8.25 3.75 19.459 3.75 33.626s-1.248 25.040-3.75 32.624c-2.499 7.584-6 13.501-10.499 17.75s-10.208 7.123-17.123 8.624c-5.168 1.168-15.293 1.75-30.378 1.75h-16.624z" />
<glyph unicode="&#xe953;" d="M630.624 192v183.251h125.626v-31.002h-88.624v-43.376h76.499v-30.998h-76.499v-77.875h-37.002z" />
<glyph unicode="&#xe954;" d="M810.664 832h-341.332c-70.693 0-128.002-57.307-128.002-128v-512h597.334v512c0 70.693-57.307 128-128 128z" />
<glyph unicode="&#xe955;" d="M480 661.339c0 17.673 14.329 32 32 32h256c17.671 0 32-14.327 32-32s-14.329-32-32-32h-256c-17.671 0-32 14.327-32 32z" />
<glyph unicode="&#xe956;" d="M480 490.661c0 17.675 14.329 32 32 32h128c17.671 0 32-14.325 32-32 0-17.671-14.329-32-32-32h-128c-17.671 0-32 14.329-32 32z" />
<glyph unicode="&#xe957;" d="M341.33 192c0 70.693 57.309 128 128.002 128h469.332v-128c0-70.693-57.307-128-128-128h-341.332c-70.693 0-128.002 57.307-128.002 128z" />
<glyph unicode="&#xe958;" d="M85.33 768c0 35.346 28.654 64 64 64s64-28.654 64-64v-561.777c0-36.926-11.977-72.858-34.133-102.4l-12.8-17.068c-8.533-11.377-25.6-11.377-34.133 0l-12.8 17.068c-22.156 29.542-34.134 65.474-34.134 102.4v561.777z" />
<glyph unicode="&#xe959;" d="M213.33 661.333h-128v106.667c0 35.346 28.654 64 64 64s64-28.654 64-64v-106.667z" />
<glyph unicode="&#xe95a;" d="M128 704c0 94.257 76.41 170.667 170.667 170.667h426.667c94.255 0 170.667-76.41 170.667-170.667v-512c0-94.255-76.412-170.667-170.667-170.667h-426.667c-94.257 0-170.667 76.412-170.667 170.667v512z" />
<glyph unicode="&#xe95b;" d="M512 736c64.802 0 117.333-52.532 117.333-117.333v-170.667c0-17.673-14.327-32-32-32s-32 14.327-32 32v53.333h-106.667v-53.333c0-17.673-14.327-32-32-32s-32 14.327-32 32v170.667c0 64.801 52.531 117.333 117.333 117.333zM565.333 565.333v53.333c0 29.455-23.876 53.333-53.333 53.333s-53.333-23.878-53.333-53.333v-53.333h106.667z" />
<glyph unicode="&#xe95c;" d="M309.333 320c0 17.673 14.327 32 32 32h341.333c17.673 0 32-14.327 32-32s-14.327-32-32-32h-341.333c-17.673 0-32 14.327-32 32z" />
<glyph unicode="&#xe95d;" d="M309.333 192c0 17.673 14.327 32 32 32h170.667c17.673 0 32-14.327 32-32s-14.327-32-32-32h-170.667c-17.673 0-32 14.327-32 32z" />
<glyph unicode="&#xe95e;" glyph-name="search" data-tags="search" d="M864 469.333c0-206.187-167.147-373.333-373.333-373.333s-373.333 167.147-373.333 373.333c0 206.186 167.147 373.333 373.333 373.333s373.333-167.147 373.333-373.333zM490.667 32c241.532 0 437.333 195.802 437.333 437.333s-195.802 437.333-437.333 437.333c-241.533 0-437.333-195.801-437.333-437.333s195.801-437.333 437.333-437.333zM875.959 129.293c-12.497 12.497-32.755 12.497-45.252 0s-12.497-32.755 0-45.252l85.329-85.333c12.497-12.497 32.759-12.497 45.257 0s12.497 32.759 0 45.257l-85.333 85.329z" />
<glyph unicode="&#xe95f;" glyph-name="subscribe" data-tags="subscribe" d="M233.39 254.715c12.497-12.498 32.758-12.498 45.255 0s12.497 32.758 0 45.256l-116.039 116.035h520.080c17.669 0 32 14.331 32 32.002 0 17.673-14.331 32-32 32h-520.081l116.040 116.041c12.497 12.496 12.497 32.758 0 45.255s-32.758 12.496-45.255 0l-170.666-170.669c-6.001-6.001-9.373-14.14-9.373-22.627 0-8.485 3.372-16.626 9.373-22.627l170.667-170.665zM404.033 206.505c-13.79 11.054-33.929 8.837-44.983-4.951s-8.837-33.93 4.953-44.984c63.909-51.231 145.091-81.894 233.348-81.894 206.188 0 373.335 167.148 373.335 373.333s-167.148 373.334-373.335 373.334c-88.257 0-169.439-30.665-233.348-81.896-13.789-11.054-16.007-31.194-4.953-44.983s31.194-16.007 44.983-4.953c52.964 42.457 120.132 67.832 193.317 67.832 170.839 0 309.335-138.493 309.335-309.334 0-170.842-138.496-309.333-309.335-309.333-73.185 0-140.354 25.375-193.317 67.83z" />
<glyph unicode="&#xe960;" d="M298.667 746.667v-384c0-47.13 38.205-85.333 85.333-85.333h469.333c47.13 0 85.333 38.204 85.333 85.333v384c0 47.128-38.204 85.333-85.333 85.333h-469.333c-47.128 0-85.333-38.205-85.333-85.333z" />
<glyph unicode="&#xe961;" d="M85.333 192c0 47.13 38.205 85.333 85.333 85.333h7.32c22.632 0 44.337-8.99 60.34-24.994 33.324-33.323 87.355-33.323 120.679 0 16.003 16.004 37.708 24.994 60.34 24.994h7.32c47.13 0 85.333-38.204 85.333-85.333v-42.667c0-47.13-38.204-85.333-85.333-85.333h-256c-47.128 0-85.333 38.204-85.333 85.333v42.667z" />
<glyph unicode="&#xe962;" d="M405.333 426.667c0-58.91-47.756-106.667-106.667-106.667s-106.667 47.757-106.667 106.667c0 58.91 47.756 106.667 106.667 106.667s106.667-47.757 106.667-106.667z" />
<glyph unicode="&#xe963;" d="M437.333 640c0 17.673 14.327 32 32 32h298.667c17.673 0 32-14.327 32-32s-14.327-32-32-32h-298.667c-17.673 0-32 14.327-32 32z" />
<glyph unicode="&#xe964;" d="M565.333 469.333c0 17.673 14.327 32 32 32h170.667c17.673 0 32-14.327 32-32s-14.327-32-32-32h-170.667c-17.673 0-32 14.327-32 32z" />
<glyph unicode="&#xe965;" glyph-name="telegram" data-tags="telegram" d="M883.614 804.075c0 0 82.884 32.32 75.977-46.171-2.3-32.32-23.023-145.44-39.142-267.796l-55.253-362.445c0 0-4.608-53.099-46.050-62.332s-103.607 32.32-115.123 41.553c-9.207 6.925-172.676 110.814-230.238 161.6-16.119 13.854-34.539 41.557 2.3 73.873l241.758 230.859c27.627 27.703 55.253 92.343-59.866 13.852l-322.336-219.315c0 0-36.838-23.087-105.909-2.308l-149.657 46.174c0 0-55.258 34.624 39.141 69.257 230.241 108.503 513.439 219.315 764.4 323.2z" />
<glyph unicode="&#xe966;" d="M629.333-10.667h-256c-94.257 0-170.667 76.412-170.667 170.667v554.667h597.333v-554.667c0-94.255-76.412-170.667-170.667-170.667z" />
<glyph unicode="&#xe967;" d="M586.667 533.333c17.673 0 32-14.327 32-32v-256c0-17.673-14.327-32-32-32s-32 14.327-32 32v256c0 17.673 14.327 32 32 32z" />
<glyph unicode="&#xe968;" d="M416 533.333c17.673 0 32-14.327 32-32v-256c0-17.673-14.327-32-32-32s-32 14.327-32 32v256c0 17.673 14.327 32 32 32z" />
<glyph unicode="&#xe969;" d="M364.042 822.418c21.761 32.642 58.397 52.248 97.629 52.248h79.326c39.232 0 75.866-19.607 97.63-52.248l50.5-75.752h196.207c17.673 0 32-14.327 32-32s-14.327-32-32-32h-768c-17.673 0-32 14.327-32 32s14.327 32 32 32h196.207l50.501 75.752z" />
<glyph unicode="&#xe96a;" glyph-name="twitter" data-tags="twitter" d="M958.293 704c-32.853-14.933-68.267-24.747-104.96-29.44 37.547 22.613 66.56 58.453 80.213 101.547-35.413-21.333-74.667-36.267-116.053-44.8-33.707 36.693-81.067 58.027-134.827 58.027-100.267 0-182.187-81.92-182.187-183.040 0-14.507 1.707-28.587 4.693-41.813-151.892 7.68-287.145 80.64-377.172 191.147-15.787-26.88-24.747-58.453-24.747-91.733 0-63.573 32-119.893 81.493-151.893-30.293 0-58.453 8.533-83.2 21.333v-1.28c0-88.747 63.147-162.987 146.773-179.627-26.849-7.347-55.036-8.371-82.347-2.987 11.589-36.373 34.284-68.198 64.897-91.004 30.612-22.81 67.602-35.447 105.77-36.143-64.698-51.217-144.896-78.903-227.413-78.507-14.507 0-29.013 0.853-43.52 2.56 81.067-52.053 177.493-82.347 280.747-82.347 336.212 0 520.958 279.040 520.958 520.96 0 8.107 0 15.787-0.427 23.893 35.84 25.6 66.56 58.027 91.307 95.147z" />
<glyph unicode="&#xe96b;" d="M810.667 234.667c0-94.257-133.718-170.667-298.667-170.667s-298.667 76.41-298.667 170.667c0 94.257 133.718 170.667 298.667 170.667s298.667-76.41 298.667-170.667z" />
<glyph unicode="&#xe96c;" d="M682.667 661.333c0-94.257-76.41-170.667-170.667-170.667s-170.667 76.41-170.667 170.667c0 94.257 76.41 170.667 170.667 170.667s170.667-76.41 170.667-170.667z" />
<glyph unicode="&#xe96d;" d="M725.333 234.667c0-94.257-133.718-170.667-298.667-170.667s-298.667 76.41-298.667 170.667c0 94.257 133.718 170.667 298.667 170.667s298.667-76.41 298.667-170.667z" />
<glyph unicode="&#xe96e;" d="M597.333 661.333c0-94.257-76.41-170.667-170.667-170.667s-170.667 76.41-170.667 170.667c0 94.257 76.41 170.667 170.667 170.667s170.667-76.41 170.667-170.667z" />
<glyph unicode="&#xe96f;" d="M778.667 405.333c0-17.673 14.327-32 32-32s32 14.327 32 32v53.333h53.333c17.673 0 32 14.327 32 32s-14.327 32-32 32h-53.333v53.333c0 17.673-14.327 32-32 32s-32-14.327-32-32v-53.333h-53.333c-17.673 0-32-14.327-32-32s14.327-32 32-32h53.333v-53.333z" />
<glyph unicode="&#xe971;" d="M725.333 234.66c0-94.257-133.718-170.666-298.666-170.666s-298.666 76.41-298.666 170.666c0 94.257 133.718 170.666 298.666 170.666s298.666-76.41 298.666-170.666z" />
<glyph unicode="&#xe972;" d="M597.333 661.334c0-94.257-76.41-170.666-170.666-170.666s-170.666 76.41-170.666 170.666c0 94.257 76.41 170.666 170.666 170.666s170.666-76.41 170.666-170.666z" />
<glyph unicode="&#xe973;" d="M693.335 490.675c0 17.673 14.331 32 32 32h170.67c17.674 0 32-14.327 32-32s-14.326-32-32-32h-170.67c-17.669 0-32 14.327-32 32z" />
<glyph unicode="&#xe974;" d="M85.333 661.333c0 94.257 76.41 170.667 170.667 170.667h512c94.255 0 170.667-76.41 170.667-170.667v-426.667c0-94.255-76.412-170.667-170.667-170.667h-512c-94.257 0-170.667 76.412-170.667 170.667v426.667z" />
<glyph unicode="&#xe975;" d="M445.747 587.795l203.26-101.629c31.45-15.727 31.45-60.604 0-76.326l-203.26-101.628c-28.369-14.187-61.747 6.443-61.747 38.161v203.26c0 31.718 33.379 52.347 61.747 38.162z" />
<glyph unicode="&#xe976;" d="M85.333 661.333c0 94.257 76.41 170.667 170.667 170.667h512c94.255 0 170.667-76.41 170.667-170.667v-426.667c0-94.255-76.412-170.667-170.667-170.667h-512c-94.257 0-170.667 76.412-170.667 170.667v426.667z" />
<glyph unicode="&#xe977;" d="M445.747 587.795l203.26-101.629c31.45-15.727 31.45-60.604 0-76.326l-203.26-101.628c-28.369-14.187-61.747 6.443-61.747 38.161v203.26c0 31.718 33.379 52.347 61.747 38.162z" />
</font>
</defs>
</svg>
