<svg width="14" height="8" viewBox="0 0 14 8" fill="none" xmlns="http://www.w3.org/2000/svg">
<path fill-rule="evenodd" clip-rule="evenodd" d="M5.93817 0.292901C6.12569 0.10543 6.38 0.000114312 6.64517 0.000114335C6.91033 0.000114358 7.16464 0.10543 7.35217 0.292901L13.0092 5.9499C13.1047 6.04215 13.1809 6.15249 13.2333 6.2745C13.2857 6.3965 13.3133 6.52772 13.3144 6.6605C13.3156 6.79328 13.2903 6.92496 13.24 7.04785C13.1897 7.17075 13.1155 7.2824 13.0216 7.3763C12.9277 7.47019 12.816 7.54444 12.6931 7.59472C12.5702 7.645 12.4385 7.67031 12.3058 7.66915C12.173 7.668 12.0418 7.64041 11.9198 7.588C11.7978 7.53559 11.6874 7.45941 11.5952 7.3639L6.64517 2.4139L1.69516 7.3639C1.50656 7.54606 1.25396 7.64685 0.991764 7.64457C0.729568 7.6423 0.478754 7.53713 0.293346 7.35172C0.107939 7.16631 0.00276858 6.9155 0.000490277 6.6533C-0.00178803 6.3911 0.0990058 6.1385 0.281164 5.9499L5.93817 0.292901Z" fill="#FEFEFE"/>
</svg>
