<svg width="32" height="32" viewBox="0 0 32 32" fill="none" xmlns="http://www.w3.org/2000/svg">
<path opacity="0.4" d="M24 4H16C13.0544 4 10.6666 6.38781 10.6666 9.33333V22.6667C10.6666 25.6122 13.0544 28 16 28H24C26.9455 28 29.3333 25.6122 29.3333 22.6667V9.33333C29.3333 6.38781 26.9455 4 24 4Z" fill="#530F0F"/>
<path opacity="0.4" d="M2.66663 6C2.66663 4.89543 3.56206 4 4.66663 4C5.7712 4 6.66663 4.89543 6.66663 6V24C6.66663 24.8655 6.38591 25.7076 5.86663 26.4L4.66663 28L3.46663 26.4C2.94734 25.7076 2.66663 24.8655 2.66663 24V6Z" fill="#530F0F"/>
<path d="M6.66663 9.33333H2.66663V6C2.66663 4.89543 3.56206 4 4.66663 4C5.7712 4 6.66663 4.89543 6.66663 6V9.33333Z" fill="#530F0F"/>
<path fill-rule="evenodd" clip-rule="evenodd" d="M15 9.33331C15 8.78103 15.4477 8.33331 16 8.33331H24C24.5523 8.33331 25 8.78103 25 9.33331C25 9.8856 24.5523 10.3333 24 10.3333H16C15.4477 10.3333 15 9.8856 15 9.33331Z" fill="#530F0F"/>
<path fill-rule="evenodd" clip-rule="evenodd" d="M15 14.6667C15 14.1144 15.4477 13.6667 16 13.6667H24C24.5523 13.6667 25 14.1144 25 14.6667C25 15.219 24.5523 15.6667 24 15.6667H16C15.4477 15.6667 15 15.219 15 14.6667Z" fill="#530F0F"/>
<path fill-rule="evenodd" clip-rule="evenodd" d="M15 20C15 19.4477 15.4477 19 16 19H20C20.5523 19 21 19.4477 21 20C21 20.5523 20.5523 21 20 21H16C15.4477 21 15 20.5523 15 20Z" fill="#530F0F"/>
<path fill-rule="evenodd" clip-rule="evenodd" d="M29.9919 21.9141C30.4076 22.2778 30.4497 22.9096 30.086 23.3252L26.2594 27.6984C25.4372 28.6381 24.0209 28.764 23.0458 27.9839L20.7087 26.1142C20.2775 25.7692 20.2075 25.1399 20.5525 24.7087C20.8976 24.2774 21.5268 24.2075 21.9581 24.5525L24.2952 26.4222C24.4345 26.5336 24.6368 26.5156 24.7543 26.3814L28.5808 22.0082C28.9445 21.5926 29.5763 21.5504 29.9919 21.9141Z" fill="#530F0F"/>
</svg>
