<svg width="28" height="28" viewBox="0 0 28 28" fill="none" xmlns="http://www.w3.org/2000/svg">
<path fill-rule="evenodd" clip-rule="evenodd" d="M13.2029 6.32852C10.7252 4.59237 7.24808 3.8056 4.65997 3.51315C3.37908 3.36841 2.33325 4.43803 2.33325 5.75771V18.8999C2.33325 20.2196 3.37908 21.2896 4.65997 21.4344C7.24808 21.7268 10.7252 22.5136 13.2029 24.2497C13.441 24.4166 13.7204 24.5 13.9999 24.5V6.57878C13.7204 6.57878 13.441 6.49536 13.2029 6.32852ZM4.96868 9.49662C5.04264 9.01907 5.48973 8.69189 5.96729 8.76584C7.4872 9.00123 9.19887 9.39467 10.8156 10.0199C11.2664 10.1942 11.4904 10.7008 11.3161 11.1516C11.1419 11.6023 10.6352 11.8264 10.1845 11.6521C8.71603 11.0842 7.13304 10.7172 5.69946 10.4952C5.22191 10.4213 4.89473 9.97418 4.96868 9.49662ZM5.96729 13.4325C5.48973 13.3586 5.04264 13.6857 4.96868 14.1633C4.89473 14.6408 5.22191 15.0879 5.69946 15.1619C6.42191 15.2738 7.18453 15.4228 7.95266 15.6166C8.42122 15.7348 8.89691 15.4508 9.01512 14.9823C9.13334 14.5137 8.84933 14.038 8.38076 13.9198C7.55359 13.7111 6.73698 13.5517 5.96729 13.4325Z" fill="#530F0F"/>
<path opacity="0.4" d="M14.797 6.32852C17.2747 4.59237 20.7518 3.8056 23.3399 3.51315C24.6208 3.36841 25.6667 4.43803 25.6667 5.75771V18.8999C25.6667 20.2196 24.6208 21.2896 23.3399 21.4344C20.7518 21.7268 17.2747 22.5136 14.797 24.2497C14.5589 24.4166 14.2795 24.5 14 24.5V6.57878C14.2795 6.57878 14.5589 6.49536 14.797 6.32852Z" fill="#530F0F"/>
</svg>
