<svg width="28" height="28" viewBox="0 0 28 28" fill="none" xmlns="http://www.w3.org/2000/svg">
<path opacity="0.4" d="M19.8334 2.3335H8.16675C6.23375 2.3335 4.66675 3.9005 4.66675 5.8335V22.1668H23.3334V5.8335C23.3334 3.9005 21.7664 2.3335 19.8334 2.3335Z" fill="#28303F"/>
<path d="M23.3334 18.6665H8.16675C6.23375 18.6665 4.66675 20.2335 4.66675 22.1665C4.66675 24.0995 6.23375 25.6665 8.16675 25.6665H19.8334C21.7664 25.6665 23.3334 24.0995 23.3334 22.1665V18.6665Z" fill="#28303F"/>
<path fill-rule="evenodd" clip-rule="evenodd" d="M18.0762 7.50801C18.4399 7.82623 18.4768 8.37903 18.1585 8.74271L14.8103 12.5692C14.0908 13.3915 12.8515 13.5016 11.9984 12.8191L9.95342 11.1831C9.57607 10.8812 9.51489 10.3306 9.81677 9.95324C10.1187 9.57589 10.6693 9.51471 11.0466 9.81659L13.0916 11.4526C13.2135 11.5501 13.3905 11.5343 13.4933 11.4169L16.8415 7.59032C17.1597 7.22664 17.7125 7.18979 18.0762 7.50801Z" fill="#28303F"/>
</svg>
