<svg width="20" height="20" viewBox="0 0 20 20" fill="none" xmlns="http://www.w3.org/2000/svg">
<path fill-rule="evenodd" clip-rule="evenodd" d="M7.00506 3.24217L5.83317 5H4.99984C3.15889 5 1.6665 6.49238 1.6665 8.33333V14.1667C1.6665 16.0076 3.15889 17.5 4.99984 17.5H14.9998C16.8408 17.5 18.3332 16.0076 18.3332 14.1667V8.33333C18.3332 6.49238 16.8408 5 14.9998 5H14.1665L12.9946 3.24217C12.6855 2.7785 12.1651 2.5 11.6079 2.5H8.39181C7.83456 2.5 7.31417 2.7785 7.00506 3.24217ZM12.4998 11.25C12.4998 12.6307 11.3805 13.75 9.99984 13.75C8.61913 13.75 7.49984 12.6307 7.49984 11.25C7.49984 9.86929 8.61913 8.75 9.99984 8.75C11.3805 8.75 12.4998 9.86929 12.4998 11.25ZM9.99984 5.83333C10.4601 5.83333 10.8332 5.46024 10.8332 5C10.8332 4.53976 10.4601 4.16667 9.99984 4.16667C9.5396 4.16667 9.1665 4.53976 9.1665 5C9.1665 5.46024 9.5396 5.83333 9.99984 5.83333Z" fill="#FEFEFE" fill-opacity="0.8"/>
</svg>
