<svg width="20" height="20" viewBox="0 0 20 20" fill="none" xmlns="http://www.w3.org/2000/svg">
<path fill-rule="evenodd" clip-rule="evenodd" d="M2.2915 1.0415C1.94633 1.0415 1.6665 1.32133 1.6665 1.6665C1.6665 2.01168 1.94633 2.2915 2.2915 2.2915H3.95817C4.53347 2.2915 4.99984 2.75787 4.99984 3.33317H6.24984C6.24984 2.06752 5.22382 1.0415 3.95817 1.0415H2.2915Z" fill="#530F0F"/>
<path opacity="0.4" d="M5 3.33301H15C16.841 3.33301 18.3333 4.82539 18.3333 6.66634V10.833C18.3333 12.674 16.841 14.1663 15 14.1663H8.33333C6.49238 14.1663 5 12.674 5 10.833V3.33301Z" fill="#530F0F"/>
<ellipse cx="7.9165" cy="17.083" rx="1.25" ry="1.25" fill="#530F0F"/>
<ellipse cx="15.4165" cy="17.083" rx="1.25" ry="1.25" fill="#530F0F"/>
<path fill-rule="evenodd" clip-rule="evenodd" d="M14.711 9.69316C14.8806 9.99384 14.7742 10.375 14.4736 10.5445C13.4609 11.1155 12.5887 11.4567 11.669 11.4584C10.7481 11.4602 9.87419 11.1217 8.85757 10.5434C8.55754 10.3727 8.45269 9.9911 8.62336 9.69107C8.79404 9.39104 9.17563 9.28618 9.47565 9.45686C10.4225 9.99549 11.0684 10.2096 11.6666 10.2084C12.2659 10.2073 12.9119 9.99 13.8597 9.45568C14.1603 9.28615 14.5415 9.39248 14.711 9.69316Z" fill="#530F0F"/>
</svg>
