<svg width="28" height="28" viewBox="0 0 28 28" fill="none" xmlns="http://www.w3.org/2000/svg">
<path fill-rule="evenodd" clip-rule="evenodd" d="M1.66699 0.166504C1.11471 0.166504 0.666992 0.614219 0.666992 1.1665C0.666992 1.71879 1.11471 2.1665 1.66699 2.1665H4.33366C5.25413 2.1665 6.00033 2.9127 6.00033 3.83317H8.00033C8.00033 1.80813 6.3587 0.166504 4.33366 0.166504H1.66699Z" fill="#FEFEFE"/>
<path opacity="0.4" d="M6 3.83301H22C24.9455 3.83301 27.3333 6.22082 27.3333 9.16634V15.833C27.3333 18.7785 24.9455 21.1663 22 21.1663H11.3333C8.38781 21.1663 6 18.7785 6 15.833V3.83301Z" fill="#FEFEFE"/>
<circle cx="10.667" cy="25.833" r="2" fill="#FEFEFE"/>
<circle cx="22.667" cy="25.833" r="2" fill="#FEFEFE"/>
<path fill-rule="evenodd" clip-rule="evenodd" d="M21.5383 14.0091C21.8095 14.4901 21.6394 15.1 21.1583 15.3713C19.5381 16.2847 18.1425 16.8307 16.671 16.8335C15.1976 16.8363 13.7993 16.2947 12.1727 15.3694C11.6927 15.0963 11.5249 14.4858 11.798 14.0057C12.0711 13.5257 12.6816 13.3579 13.1616 13.631C14.6766 14.4928 15.71 14.8353 16.6671 14.8335C17.626 14.8317 18.6597 14.484 20.176 13.6291C20.6571 13.3578 21.267 13.528 21.5383 14.0091Z" fill="#FEFEFE"/>
</svg>
