<svg width="8" height="14" viewBox="0 0 8 14" fill="none" xmlns="http://www.w3.org/2000/svg">
<path fill-rule="evenodd" clip-rule="evenodd" d="M7.70721 6.29315C7.89469 6.48067 8 6.73498 8 7.00015C8 7.26531 7.89469 7.51962 7.70721 7.70715L2.05021 13.3641C1.95797 13.4597 1.84762 13.5358 1.72562 13.5882C1.60361 13.6407 1.47239 13.6682 1.33961 13.6694C1.20684 13.6705 1.07516 13.6452 0.95226 13.595C0.829364 13.5447 0.717711 13.4704 0.623818 13.3765C0.529926 13.2826 0.455673 13.171 0.405392 13.0481C0.355111 12.9252 0.329809 12.7935 0.330963 12.6607C0.332117 12.528 0.359703 12.3967 0.412112 12.2747C0.464522 12.1527 0.540703 12.0424 0.636213 11.9501L5.58621 7.00015L0.636214 2.05014C0.454056 1.86154 0.353262 1.60894 0.35554 1.34674C0.357819 1.08455 0.462988 0.833734 0.648396 0.648326C0.833804 0.462919 1.08462 0.357748 1.34681 0.35547C1.60901 0.353192 1.86161 0.453986 2.05021 0.636144L7.70721 6.29315Z" fill="#FEFEFE" fill-opacity="0.996078"/>
</svg>
