<svg width="11" height="12" viewBox="0 0 11 12" fill="none" xmlns="http://www.w3.org/2000/svg">
<path d="M0.849252 1.05025C1.01335 0.886158 1.23591 0.79397 1.46797 0.79397C1.70004 0.79397 1.92259 0.886157 2.08669 1.05025L5.799 4.76256L9.51131 1.05025C9.6754 0.886156 9.89796 0.793968 10.13 0.793968C10.3621 0.793968 10.5847 0.886156 10.7487 1.05025C10.9128 1.21434 11.005 1.4369 11.005 1.66897C11.005 1.90103 10.9128 2.12359 10.7487 2.28769L7.03644 6L10.7487 9.71231C10.9128 9.8764 11.005 10.099 11.005 10.331C11.005 10.5631 10.9128 10.7857 10.7487 10.9497C10.5847 11.1138 10.3621 11.206 10.13 11.206C9.89797 11.206 9.67541 11.1138 9.51131 10.9497L5.799 7.23744L2.08669 10.9497C1.9226 11.1138 1.70004 11.206 1.46797 11.206C1.23591 11.206 1.01335 11.1138 0.849254 10.9497C0.68516 10.7857 0.592972 10.5631 0.592972 10.331C0.592972 10.099 0.685159 9.8764 0.849254 9.71231L4.56156 6L0.849252 2.28769C0.685158 2.12359 0.592971 1.90103 0.592971 1.66897C0.592971 1.43691 0.685158 1.21435 0.849252 1.05025Z" fill="black"/>
</svg>
