<svg width="24" height="24" viewBox="0 0 24 24" fill="none" xmlns="http://www.w3.org/2000/svg">
<path opacity="0.4" d="M5.6 6.8C4.11672 4.82229 5.52786 2 8 2H16C18.4721 2 19.8833 4.82229 18.4 6.8L15.85 10.2C15.05 11.2667 15.05 12.7333 15.85 13.8L18.4 17.2C19.8833 19.1777 18.4721 22 16 22H8C5.52786 22 4.11672 19.1777 5.6 17.2L8.15 13.8C8.95 12.7333 8.95 11.2667 8.15 10.2L5.6 6.8Z" fill="#530F0F"/>
<path d="M11.2195 14.9759C11.6198 14.4755 12.3809 14.4755 12.7812 14.9759L14.7006 17.3751C15.2244 18.0299 14.7582 18.9998 13.9197 18.9998H10.081C9.24247 18.9998 8.7763 18.0299 9.30011 17.3751L11.2195 14.9759Z" fill="#530F0F"/>
</svg>
