<svg width="24" height="24" viewBox="0 0 24 24" fill="none" xmlns="http://www.w3.org/2000/svg">
<path d="M13.0276 2.00099C13.7573 1.99819 14.4871 2.00552 15.2166 2.02299L15.4106 2.02999C15.6346 2.03799 15.8556 2.04799 16.1226 2.05999C17.1866 2.10999 17.9126 2.27799 18.5496 2.52499C19.2096 2.77899 19.7656 3.12299 20.3216 3.67899C20.83 4.17859 21.2234 4.78293 21.4746 5.44999C21.7216 6.08699 21.8896 6.81399 21.9396 7.87799C21.9516 8.14399 21.9616 8.36599 21.9696 8.58999L21.9756 8.78399C21.9934 9.51318 22.001 10.2426 21.9986 10.972L21.9996 11.718V13.028C22.0021 13.7577 21.9944 14.4875 21.9766 15.217L21.9706 15.411C21.9626 15.635 21.9526 15.856 21.9406 16.123C21.8906 17.187 21.7206 17.913 21.4746 18.55C21.2242 19.2177 20.8307 19.8226 20.3216 20.322C19.8216 20.8303 19.2169 21.2237 18.5496 21.475C17.9126 21.722 17.1866 21.89 16.1226 21.94C15.8556 21.952 15.6346 21.962 15.4106 21.97L15.2166 21.976C14.4871 21.9938 13.7573 22.0014 13.0276 21.999L12.2816 22H10.9726C10.2429 22.0025 9.51313 21.9948 8.7836 21.977L8.5896 21.971C8.35221 21.9624 8.11487 21.9524 7.8776 21.941C6.8136 21.891 6.0876 21.721 5.4496 21.475C4.78228 21.2243 4.17784 20.8308 3.6786 20.322C3.16965 19.8223 2.77582 19.2175 2.5246 18.55C2.2776 17.913 2.1096 17.187 2.0596 16.123C2.04846 15.8857 2.03846 15.6484 2.0296 15.411L2.0246 15.217C2.00616 14.4875 1.99783 13.7577 1.9996 13.028V10.972C1.99681 10.2426 2.00414 9.51318 2.0216 8.78399L2.0286 8.58999C2.0366 8.36599 2.0466 8.14399 2.0586 7.87799C2.1086 6.81299 2.2766 6.08799 2.5236 5.44999C2.77497 4.78261 3.16956 4.17843 3.6796 3.67999C4.17849 3.17074 4.78256 2.77656 5.4496 2.52499C6.0876 2.27799 6.8126 2.10999 7.8776 2.05999L8.5896 2.02999L8.7836 2.02499C9.51278 2.00656 10.2422 1.99823 10.9716 1.99999L13.0276 2.00099ZM11.9996 7.00099C11.3371 6.99162 10.6794 7.11401 10.0646 7.36105C9.4498 7.6081 8.89025 7.97486 8.41845 8.44004C7.94664 8.90522 7.572 9.45952 7.31629 10.0707C7.06057 10.682 6.92889 11.3379 6.92889 12.0005C6.92889 12.663 7.06057 13.319 7.31629 13.9302C7.572 14.5414 7.94664 15.0958 8.41845 15.5609C8.89025 16.0261 9.4498 16.3929 10.0646 16.6399C10.6794 16.887 11.3371 17.0094 11.9996 17C13.3257 17 14.5975 16.4732 15.5351 15.5355C16.4728 14.5978 16.9996 13.3261 16.9996 12C16.9996 10.6739 16.4728 9.40213 15.5351 8.46445C14.5975 7.52677 13.3257 7.00099 11.9996 7.00099ZM11.9996 9.00099C12.3981 8.99364 12.7941 9.06578 13.1644 9.21319C13.5347 9.3606 13.8719 9.58033 14.1564 9.85953C14.4408 10.1387 14.6668 10.4718 14.821 10.8393C14.9753 11.2068 15.0548 11.6014 15.0549 12C15.0549 12.3986 14.9756 12.7931 14.8214 13.1607C14.6673 13.5283 14.4414 13.8614 14.1571 14.1407C13.8727 14.42 13.5356 14.6399 13.1653 14.7874C12.7951 14.9349 12.3991 15.0072 12.0006 15C11.205 15 10.4419 14.6839 9.87928 14.1213C9.31667 13.5587 9.0006 12.7956 9.0006 12C9.0006 11.2043 9.31667 10.4413 9.87928 9.87867C10.4419 9.31606 11.205 8.99999 12.0006 8.99999L11.9996 9.00099ZM17.2496 5.50099C16.927 5.5139 16.6219 5.65114 16.3982 5.88396C16.1745 6.11678 16.0496 6.42712 16.0496 6.74999C16.0496 7.07285 16.1745 7.38319 16.3982 7.61601C16.6219 7.84884 16.927 7.98607 17.2496 7.99899C17.5811 7.99899 17.8991 7.86729 18.1335 7.63287C18.3679 7.39845 18.4996 7.08051 18.4996 6.74899C18.4996 6.41747 18.3679 6.09952 18.1335 5.8651C17.8991 5.63068 17.5811 5.49899 17.2496 5.49899V5.50099Z" fill="#FEFEFE"/>
</svg>
