<svg width="32" height="33" viewBox="0 0 32 33" fill="none" xmlns="http://www.w3.org/2000/svg">
<path opacity="0.4" d="M7.57252 13.5584C8.07144 9.15415 11.6943 5.83301 15.9997 5.83301C20.3051 5.83301 23.9279 9.15415 24.4268 13.5584L24.8867 17.6177C25.0009 18.6263 25.4097 19.5755 26.059 20.3397C27.4369 21.9615 26.3186 24.4997 24.2262 24.4997H7.77319C5.68076 24.4997 4.56246 21.9615 5.94033 20.3397C6.58963 19.5755 6.99843 18.6263 7.11269 17.6177L7.57252 13.5584Z" fill="#FEFEFE"/>
<path d="M16 29.8333C17.8467 29.8333 19.4178 28.7203 20 27.1667C20 26.7985 19.7015 26.5 19.3333 26.5H12.6667C12.2985 26.5 12 26.7985 12 27.1667C12.5822 28.7203 14.1533 29.8333 16 29.8333Z" fill="#FEFEFE"/>
<path d="M26.666 7.1665C26.666 9.37564 24.8752 11.1665 22.666 11.1665C20.4569 11.1665 18.666 9.37564 18.666 7.1665C18.666 4.95736 20.4569 3.1665 22.666 3.1665C24.8752 3.1665 26.666 4.95736 26.666 7.1665Z" fill="#FEFEFE"/>
</svg>
