<svg width="32" height="32" viewBox="0 0 32 32" fill="none" xmlns="http://www.w3.org/2000/svg">
<path opacity="0.4" d="M4 23.9998L4 7.99984C4 5.05432 6.38781 2.6665 9.33333 2.6665L17.3333 2.6665C20.8908 6.22394 24.4909 9.74326 28 13.3486V23.9998C28 26.9454 25.6122 29.3332 22.6667 29.3332H9.33333C6.38782 29.3332 4 26.9454 4 23.9998Z" fill="#530F0F"/>
<path d="M17.3333 7.99984L17.3333 2.6665L27.9999 13.3332L22.6666 13.3332C19.7211 13.3332 17.3333 10.9454 17.3333 7.99984Z" fill="#530F0F"/>
<path d="M8.58203 24V18.2734H10.4375C11.1406 18.2734 11.599 18.3021 11.8125 18.3594C12.1406 18.4453 12.4154 18.6328 12.6367 18.9219C12.8581 19.2083 12.9688 19.5794 12.9688 20.0352C12.9688 20.3867 12.9049 20.6823 12.7773 20.9219C12.6497 21.1615 12.487 21.3503 12.2891 21.4883C12.0938 21.6237 11.8945 21.7135 11.6914 21.7578C11.4154 21.8125 11.0156 21.8398 10.4922 21.8398H9.73828V24H8.58203ZM9.73828 19.2422V20.8672H10.3711C10.8268 20.8672 11.1315 20.8372 11.2852 20.7773C11.4388 20.7174 11.5586 20.6237 11.6445 20.4961C11.7331 20.3685 11.7773 20.2201 11.7773 20.0508C11.7773 19.8424 11.7161 19.6706 11.5938 19.5352C11.4714 19.3997 11.3164 19.3151 11.1289 19.2812C10.9909 19.2552 10.7135 19.2422 10.2969 19.2422H9.73828Z" fill="#530F0F"/>
<path d="M13.9141 18.2734H16.0273C16.5039 18.2734 16.8672 18.3099 17.1172 18.3828C17.4531 18.4818 17.7409 18.6576 17.9805 18.9102C18.2201 19.1628 18.4023 19.4727 18.5273 19.8398C18.6523 20.2044 18.7148 20.6549 18.7148 21.1914C18.7148 21.6628 18.6562 22.069 18.5391 22.4102C18.3958 22.8268 18.1914 23.1641 17.9258 23.4219C17.7253 23.6172 17.4544 23.7695 17.1133 23.8789C16.8581 23.9596 16.5169 24 16.0898 24H13.9141V18.2734ZM15.0703 19.2422V23.0352H15.9336C16.2565 23.0352 16.4896 23.0169 16.6328 22.9805C16.8203 22.9336 16.9753 22.8542 17.0977 22.7422C17.2227 22.6302 17.3242 22.4466 17.4023 22.1914C17.4805 21.9336 17.5195 21.5833 17.5195 21.1406C17.5195 20.6979 17.4805 20.3581 17.4023 20.1211C17.3242 19.8841 17.2148 19.6992 17.0742 19.5664C16.9336 19.4336 16.7552 19.3438 16.5391 19.2969C16.3776 19.2604 16.0612 19.2422 15.5898 19.2422H15.0703Z" fill="#530F0F"/>
<path d="M19.707 24V18.2734H23.6328V19.2422H20.8633V20.5977H23.2539V21.5664H20.8633V24H19.707Z" fill="#530F0F"/>
</svg>
