<svg width="28" height="28" viewBox="0 0 28 28" fill="none" xmlns="http://www.w3.org/2000/svg">
<path opacity="0.4" d="M22.1666 3.5H12.8333C10.9003 3.5 9.33325 5.067 9.33325 7V21H25.6666V7C25.6666 5.067 24.0996 3.5 22.1666 3.5Z" fill="#28303F"/>
<path fill-rule="evenodd" clip-rule="evenodd" d="M13.125 8.1665C13.125 7.68325 13.5168 7.2915 14 7.2915H21C21.4832 7.2915 21.875 7.68325 21.875 8.1665C21.875 8.64975 21.4832 9.0415 21 9.0415H14C13.5168 9.0415 13.125 8.64975 13.125 8.1665Z" fill="#28303F"/>
<path fill-rule="evenodd" clip-rule="evenodd" d="M13.125 12.8335C13.125 12.3502 13.5168 11.9585 14 11.9585H17.5C17.9832 11.9585 18.375 12.3502 18.375 12.8335C18.375 13.3167 17.9832 13.7085 17.5 13.7085H14C13.5168 13.7085 13.125 13.3167 13.125 12.8335Z" fill="#28303F"/>
<path d="M9.33325 21C9.33325 19.067 10.9003 17.5 12.8333 17.5H25.6666V21C25.6666 22.933 24.0996 24.5 22.1666 24.5H12.8333C10.9003 24.5 9.33325 22.933 9.33325 21Z" fill="#28303F"/>
<path opacity="0.4" d="M2.33325 5.25C2.33325 4.2835 3.11675 3.5 4.08325 3.5C5.04975 3.5 5.83325 4.2835 5.83325 5.25V20.6111C5.83325 21.6208 5.50576 22.6033 4.89992 23.4111L4.54992 23.8778C4.31659 24.1889 3.84992 24.1889 3.61659 23.8778L3.26659 23.4111C2.66075 22.6033 2.33325 21.6208 2.33325 20.6111V5.25Z" fill="#28303F"/>
<path d="M5.83325 8.16667H2.33325V5.25C2.33325 4.2835 3.11675 3.5 4.08325 3.5C5.04975 3.5 5.83325 4.2835 5.83325 5.25V8.16667Z" fill="#28303F"/>
</svg>
