<svg width="20" height="20" viewBox="0 0 20 20" fill="none" xmlns="http://www.w3.org/2000/svg">
<path fill-rule="evenodd" clip-rule="evenodd" d="M4.55839 13.7751C4.80247 14.0192 5.19819 14.0192 5.44227 13.7751C5.68635 13.531 5.68635 13.1353 5.44227 12.8912L3.17589 10.6249L13.3337 10.6249C13.6788 10.6249 13.9587 10.345 13.9587 9.99987C13.9587 9.65469 13.6788 9.37487 13.3337 9.37487L3.17587 9.37487L5.44227 7.10844C5.68635 6.86437 5.68635 6.46864 5.44227 6.22456C5.19819 5.98048 4.80246 5.98049 4.55838 6.22456L1.22505 9.55793C1.10784 9.67514 1.04199 9.83411 1.04199 9.99987C1.04199 10.1656 1.10784 10.3246 1.22505 10.4418L4.55839 13.7751ZM7.89127 14.7167C7.62194 14.5008 7.22859 14.5441 7.0127 14.8134C6.7968 15.0827 6.84011 15.4761 7.10943 15.692C8.35765 16.6926 9.94324 17.2915 11.667 17.2915C15.6941 17.2915 18.9587 14.0269 18.9587 9.99984C18.9587 5.97276 15.6941 2.70817 11.667 2.70817C9.94324 2.70817 8.35764 3.3071 7.10943 4.3077C6.84011 4.5236 6.7968 4.91695 7.01269 5.18628C7.22859 5.4556 7.62194 5.49891 7.89127 5.28301C8.92572 4.45377 10.2376 3.95817 11.667 3.95817C15.0037 3.95817 17.7087 6.66312 17.7087 9.99984C17.7087 13.3366 15.0037 16.0415 11.667 16.0415C10.2376 16.0415 8.92572 15.5459 7.89127 14.7167Z" fill="#FEFEFE"/>
</svg>
